<svg xmlns="http://www.w3.org/2000/svg" fill="none" viewBox="0 0 411 731" height="731" width="411">
<rect fill="#B1E5F2" height="731" width="411"></rect>
<path fill="black" d="M62.384 125.436V138H60.746V125.436H62.384ZM70.5408 128.64C71.5368 128.64 72.3228 128.976 72.8988 129.648C73.4748 130.32 73.7628 131.16 73.7628 132.168V138H72.1248V132.348C72.1248 130.884 71.4648 130.152 70.1448 130.152C69.1008 130.152 68.1168 130.728 67.1928 131.88V138H65.5548V128.82H66.9948L67.1928 129.972V130.242H67.2288C68.2008 129.174 69.3048 128.64 70.5408 128.64ZM77.2616 129.936C78.1376 129.072 79.1576 128.64 80.3216 128.64C81.4856 128.64 82.4936 129.084 83.3456 129.972H83.3996V124.86H85.0376V138H83.5976L83.3996 136.848H83.3456C82.4936 137.736 81.4856 138.18 80.3216 138.18C79.1576 138.18 78.1376 137.748 77.2616 136.884C76.3976 136.02 75.9656 134.862 75.9656 133.41C75.9656 131.958 76.3976 130.8 77.2616 129.936ZM80.5556 136.65C81.6356 136.65 82.5836 136.2 83.3996 135.3V131.52C82.5836 130.62 81.6356 130.17 80.5556 130.17C79.6676 130.17 78.9536 130.452 78.4136 131.016C77.8736 131.58 77.6036 132.378 77.6036 133.41C77.6036 134.442 77.8736 135.24 78.4136 135.804C78.9536 136.368 79.6676 136.65 80.5556 136.65ZM87.321 133.41C87.321 131.982 87.741 130.83 88.581 129.954C89.421 129.078 90.531 128.64 91.911 128.64C93.303 128.64 94.419 129.078 95.259 129.954C96.111 130.83 96.537 131.982 96.537 133.41C96.537 134.838 96.111 135.99 95.259 136.866C94.419 137.742 93.303 138.18 91.911 138.18C90.531 138.18 89.421 137.742 88.581 136.866C87.741 135.99 87.321 134.838 87.321 133.41ZM89.841 135.876C90.441 136.416 91.137 136.686 91.929 136.686C92.721 136.686 93.411 136.416 93.999 135.876C94.599 135.324 94.899 134.502 94.899 133.41C94.899 132.306 94.599 131.484 93.999 130.944C93.411 130.404 92.721 130.134 91.929 130.134C91.137 130.134 90.441 130.404 89.841 130.944C89.253 131.484 88.959 132.306 88.959 133.41C88.959 134.502 89.253 135.324 89.841 135.876ZM98.2722 133.41C98.2722 131.982 98.6922 130.83 99.5322 129.954C100.372 129.078 101.482 128.64 102.862 128.64C104.254 128.64 105.37 129.078 106.21 129.954C107.062 130.83 107.488 131.982 107.488 133.41C107.488 134.838 107.062 135.99 106.21 136.866C105.37 137.742 104.254 138.18 102.862 138.18C101.482 138.18 100.372 137.742 99.5322 136.866C98.6922 135.99 98.2722 134.838 98.2722 133.41ZM100.792 135.876C101.392 136.416 102.088 136.686 102.88 136.686C103.672 136.686 104.362 136.416 104.95 135.876C105.55 135.324 105.85 134.502 105.85 133.41C105.85 132.306 105.55 131.484 104.95 130.944C104.362 130.404 103.672 130.134 102.88 130.134C102.088 130.134 101.392 130.404 100.792 130.944C100.204 131.484 99.9102 132.306 99.9102 133.41C99.9102 134.502 100.204 135.324 100.792 135.876ZM114.839 128.64H114.983V130.206H114.839C114.131 130.206 113.471 130.344 112.859 130.62C112.247 130.896 111.767 131.28 111.419 131.772V138H109.781V128.82H111.221L111.419 129.972V130.242H111.455C112.319 129.174 113.447 128.64 114.839 128.64ZM126.26 130.224H123.65V135.66C123.65 136.164 123.788 136.476 124.064 136.596C124.292 136.692 124.586 136.74 124.946 136.74C125.306 136.74 125.702 136.644 126.134 136.452H126.26V137.784C125.756 138.048 125.216 138.18 124.64 138.18C122.888 138.18 122.012 137.388 122.012 135.804V130.224H120.302V130.116L123.65 126.84V128.82H126.26V130.224ZM136.39 133.41V133.986H129.442C129.538 134.826 129.85 135.48 130.378 135.948C130.906 136.416 131.704 136.65 132.772 136.65C133.852 136.65 134.848 136.35 135.76 135.75H135.85V137.334C134.842 137.898 133.654 138.18 132.286 138.18C130.93 138.18 129.838 137.766 129.01 136.938C128.194 136.098 127.786 134.97 127.786 133.554C127.786 132.126 128.152 130.95 128.884 130.026C129.616 129.102 130.684 128.64 132.088 128.64C133.492 128.64 134.56 129.102 135.292 130.026C136.024 130.95 136.39 132.078 136.39 133.41ZM129.442 132.654H134.752C134.704 131.79 134.41 131.136 133.87 130.692C133.342 130.248 132.748 130.026 132.088 130.026C131.428 130.026 130.834 130.248 130.306 130.692C129.778 131.136 129.49 131.79 129.442 132.654ZM149.356 128.64C150.34 128.64 151.084 128.988 151.588 129.684C152.104 130.38 152.362 131.184 152.362 132.096V138H150.724V132.42C150.724 131.64 150.58 131.07 150.292 130.71C150.016 130.338 149.548 130.152 148.888 130.152C147.856 130.152 146.992 130.728 146.296 131.88V138H144.658V132.42C144.658 131.64 144.52 131.07 144.244 130.71C143.968 130.338 143.494 130.152 142.822 130.152C141.79 130.152 140.926 130.728 140.23 131.88V138H138.592V128.82H140.032L140.23 129.972V130.242H140.266C141.034 129.174 142.042 128.64 143.29 128.64C143.962 128.64 144.532 128.814 145 129.162C145.48 129.51 145.822 129.942 146.026 130.458H146.08C146.812 129.246 147.904 128.64 149.356 128.64ZM162.891 136.884C162.027 137.748 161.013 138.18 159.849 138.18C158.685 138.18 157.677 137.736 156.825 136.848H156.771V142.14H155.133V128.82H156.573L156.771 129.972H156.825C157.677 129.084 158.685 128.64 159.849 128.64C161.013 128.64 162.027 129.072 162.891 129.936C163.767 130.8 164.205 131.958 164.205 133.41C164.205 134.862 163.767 136.02 162.891 136.884ZM159.615 130.17C158.535 130.17 157.587 130.62 156.771 131.52V135.3C157.587 136.2 158.535 136.65 159.615 136.65C160.503 136.65 161.217 136.368 161.757 135.804C162.297 135.24 162.567 134.442 162.567 133.41C162.567 132.378 162.297 131.58 161.757 131.016C161.217 130.452 160.503 130.17 159.615 130.17ZM174.926 124.32V124.374C173.174 126.702 172.298 129.402 172.298 132.474C172.298 135.534 173.174 138.228 174.926 140.556V140.61H173.234C171.518 138.246 170.66 135.534 170.66 132.474C170.66 129.402 171.518 126.684 173.234 124.32H174.926ZM177.096 125.436H185.592V126.966H178.734V130.944H184.962V132.474H178.734V138H177.096V125.436ZM186.786 124.374V124.32H188.478C190.194 126.684 191.052 129.402 191.052 132.474C191.052 135.534 190.194 138.246 188.478 140.61H186.786V140.556C188.538 138.228 189.414 135.534 189.414 132.474C189.414 129.402 188.538 126.702 186.786 124.374ZM193.275 130.836V128.82H195.291V130.836H193.275ZM193.275 138V135.984H195.291V138H193.275Z"></path>
<path fill="black" d="M38.384 170.436V183H36.746V170.436H38.384ZM46.5408 173.64C47.5368 173.64 48.3228 173.976 48.8988 174.648C49.4748 175.32 49.7628 176.16 49.7628 177.168V183H48.1248V177.348C48.1248 175.884 47.4648 175.152 46.1448 175.152C45.1008 175.152 44.1168 175.728 43.1928 176.88V183H41.5548V173.82H42.9948L43.1928 174.972V175.242H43.2288C44.2008 174.174 45.3048 173.64 46.5408 173.64ZM53.2616 174.936C54.1376 174.072 55.1576 173.64 56.3216 173.64C57.4856 173.64 58.4936 174.084 59.3456 174.972H59.3996V169.86H61.0376V183H59.5976L59.3996 181.848H59.3456C58.4936 182.736 57.4856 183.18 56.3216 183.18C55.1576 183.18 54.1376 182.748 53.2616 181.884C52.3976 181.02 51.9656 179.862 51.9656 178.41C51.9656 176.958 52.3976 175.8 53.2616 174.936ZM56.5556 181.65C57.6356 181.65 58.5836 181.2 59.3996 180.3V176.52C58.5836 175.62 57.6356 175.17 56.5556 175.17C55.6676 175.17 54.9536 175.452 54.4136 176.016C53.8736 176.58 53.6036 177.378 53.6036 178.41C53.6036 179.442 53.8736 180.24 54.4136 180.804C54.9536 181.368 55.6676 181.65 56.5556 181.65ZM63.321 178.41C63.321 176.982 63.741 175.83 64.581 174.954C65.421 174.078 66.531 173.64 67.911 173.64C69.303 173.64 70.419 174.078 71.259 174.954C72.111 175.83 72.537 176.982 72.537 178.41C72.537 179.838 72.111 180.99 71.259 181.866C70.419 182.742 69.303 183.18 67.911 183.18C66.531 183.18 65.421 182.742 64.581 181.866C63.741 180.99 63.321 179.838 63.321 178.41ZM65.841 180.876C66.441 181.416 67.137 181.686 67.929 181.686C68.721 181.686 69.411 181.416 69.999 180.876C70.599 180.324 70.899 179.502 70.899 178.41C70.899 177.306 70.599 176.484 69.999 175.944C69.411 175.404 68.721 175.134 67.929 175.134C67.137 175.134 66.441 175.404 65.841 175.944C65.253 176.484 64.959 177.306 64.959 178.41C64.959 179.502 65.253 180.324 65.841 180.876ZM74.2722 178.41C74.2722 176.982 74.6922 175.83 75.5322 174.954C76.3722 174.078 77.4822 173.64 78.8622 173.64C80.2542 173.64 81.3702 174.078 82.2102 174.954C83.0622 175.83 83.4882 176.982 83.4882 178.41C83.4882 179.838 83.0622 180.99 82.2102 181.866C81.3702 182.742 80.2542 183.18 78.8622 183.18C77.4822 183.18 76.3722 182.742 75.5322 181.866C74.6922 180.99 74.2722 179.838 74.2722 178.41ZM76.7922 180.876C77.3922 181.416 78.0882 181.686 78.8802 181.686C79.6722 181.686 80.3622 181.416 80.9502 180.876C81.5502 180.324 81.8502 179.502 81.8502 178.41C81.8502 177.306 81.5502 176.484 80.9502 175.944C80.3622 175.404 79.6722 175.134 78.8802 175.134C78.0882 175.134 77.3922 175.404 76.7922 175.944C76.2042 176.484 75.9102 177.306 75.9102 178.41C75.9102 179.502 76.2042 180.324 76.7922 180.876ZM90.8394 173.64H90.9834V175.206H90.8394C90.1314 175.206 89.4714 175.344 88.8594 175.62C88.2474 175.896 87.7674 176.28 87.4194 176.772V183H85.7814V173.82H87.2214L87.4194 174.972V175.242H87.4554C88.3194 174.174 89.4474 173.64 90.8394 173.64ZM102.404 173.64C103.4 173.64 104.186 173.976 104.762 174.648C105.338 175.32 105.626 176.16 105.626 177.168V183H103.988V177.348C103.988 175.884 103.328 175.152 102.008 175.152C100.964 175.152 99.9801 175.728 99.0561 176.88V183H97.4181V169.86H99.0561V175.242H99.1101C100.082 174.174 101.18 173.64 102.404 173.64ZM111.537 183.18C110.541 183.18 109.755 182.844 109.179 182.172C108.603 181.5 108.315 180.66 108.315 179.652V173.82H109.953V179.472C109.953 180.936 110.613 181.668 111.933 181.668C112.977 181.668 113.961 181.092 114.885 179.94V173.82H116.523V183H115.083L114.885 181.848V181.578H114.849C113.877 182.646 112.773 183.18 111.537 183.18ZM130.137 173.64C131.121 173.64 131.865 173.988 132.369 174.684C132.885 175.38 133.143 176.184 133.143 177.096V183H131.505V177.42C131.505 176.64 131.361 176.07 131.073 175.71C130.797 175.338 130.329 175.152 129.669 175.152C128.637 175.152 127.773 175.728 127.077 176.88V183H125.439V177.42C125.439 176.64 125.301 176.07 125.025 175.71C124.749 175.338 124.275 175.152 123.603 175.152C122.571 175.152 121.707 175.728 121.011 176.88V183H119.373V173.82H120.813L121.011 174.972V175.242H121.047C121.815 174.174 122.823 173.64 124.071 173.64C124.743 173.64 125.313 173.814 125.781 174.162C126.261 174.51 126.603 174.942 126.807 175.458H126.861C127.593 174.246 128.685 173.64 130.137 173.64ZM135.986 183V173.82H137.624V183H135.986ZM137.696 170.112V171.876H135.932V170.112H137.696ZM141.275 174.936C142.151 174.072 143.171 173.64 144.335 173.64C145.499 173.64 146.507 174.084 147.359 174.972H147.413V169.86H149.051V183H147.611L147.413 181.848H147.359C146.507 182.736 145.499 183.18 144.335 183.18C143.171 183.18 142.151 182.748 141.275 181.884C140.411 181.02 139.979 179.862 139.979 178.41C139.979 176.958 140.411 175.8 141.275 174.936ZM144.569 181.65C145.649 181.65 146.597 181.2 147.413 180.3V176.52C146.597 175.62 145.649 175.17 144.569 175.17C143.681 175.17 142.967 175.452 142.427 176.016C141.887 176.58 141.617 177.378 141.617 178.41C141.617 179.442 141.887 180.24 142.427 180.804C142.967 181.368 143.681 181.65 144.569 181.65ZM151.965 183V173.82H153.603V183H151.965ZM153.675 170.112V171.876H151.911V170.112H153.675ZM161.358 175.224H158.748V180.66C158.748 181.164 158.886 181.476 159.162 181.596C159.39 181.692 159.684 181.74 160.044 181.74C160.404 181.74 160.8 181.644 161.232 181.452H161.358V182.784C160.854 183.048 160.314 183.18 159.738 183.18C157.986 183.18 157.11 182.388 157.11 180.804V175.224H155.4V175.116L158.748 171.84V173.82H161.358V175.224ZM171.524 173.82L165.998 187.14H164.342L165.89 183.144L162.092 173.82H163.856L166.736 181.074H166.808L169.76 173.82H171.524ZM186.877 170.382H188.281L180.343 183.072H178.939L186.877 170.382ZM177.805 171.048C178.309 170.436 179.023 170.13 179.947 170.13C180.871 170.13 181.585 170.436 182.089 171.048C182.593 171.648 182.845 172.416 182.845 173.352C182.845 174.288 182.593 175.062 182.089 175.674C181.585 176.274 180.871 176.574 179.947 176.574C179.023 176.574 178.309 176.274 177.805 175.674C177.301 175.062 177.049 174.288 177.049 173.352C177.049 172.416 177.301 171.648 177.805 171.048ZM178.741 174.828C179.029 175.212 179.431 175.404 179.947 175.404C180.463 175.404 180.865 175.212 181.153 174.828C181.441 174.444 181.585 173.952 181.585 173.352C181.585 172.752 181.441 172.26 181.153 171.876C180.865 171.492 180.463 171.3 179.947 171.3C179.431 171.3 179.029 171.492 178.741 171.876C178.453 172.26 178.309 172.752 178.309 173.352C178.309 173.952 178.453 174.444 178.741 174.828ZM185.113 177.798C185.617 177.186 186.331 176.88 187.255 176.88C188.179 176.88 188.893 177.186 189.397 177.798C189.901 178.398 190.153 179.166 190.153 180.102C190.153 181.038 189.901 181.812 189.397 182.424C188.893 183.024 188.179 183.324 187.255 183.324C186.331 183.324 185.617 183.024 185.113 182.424C184.609 181.812 184.357 181.038 184.357 180.102C184.357 179.166 184.609 178.398 185.113 177.798ZM186.049 181.578C186.337 181.962 186.739 182.154 187.255 182.154C187.771 182.154 188.173 181.962 188.461 181.578C188.749 181.194 188.893 180.702 188.893 180.102C188.893 179.502 188.749 179.01 188.461 178.626C188.173 178.242 187.771 178.05 187.255 178.05C186.739 178.05 186.337 178.242 186.049 178.626C185.761 179.01 185.617 179.502 185.617 180.102C185.617 180.702 185.761 181.194 186.049 181.578ZM192.268 175.836V173.82H194.284V175.836H192.268ZM192.268 183V180.984H194.284V183H192.268Z"></path>
<path fill="black" d="M45.754 217.056C46.894 215.856 48.412 215.256 50.308 215.256C52.204 215.256 53.722 215.856 54.862 217.056C56.002 218.256 56.59 219.81 56.626 221.718C56.59 223.626 56.002 225.18 54.862 226.38C53.722 227.58 52.204 228.18 50.308 228.18C48.412 228.18 46.894 227.58 45.754 226.38C44.614 225.18 44.026 223.626 43.99 221.718C44.026 219.81 44.614 218.256 45.754 217.056ZM45.628 221.718C45.628 223.146 46.042 224.328 46.87 225.264C47.71 226.188 48.85 226.65 50.29 226.65C51.742 226.65 52.888 226.188 53.728 225.264C54.568 224.328 54.988 223.146 54.988 221.718C54.988 220.29 54.568 219.114 53.728 218.19C52.888 217.254 51.742 216.786 50.29 216.786C48.85 216.786 47.71 217.254 46.87 218.19C46.042 219.114 45.628 220.29 45.628 221.718ZM62.1618 228.18C61.1658 228.18 60.3798 227.844 59.8038 227.172C59.2278 226.5 58.9398 225.66 58.9398 224.652V218.82H60.5778V224.472C60.5778 225.936 61.2378 226.668 62.5578 226.668C63.6018 226.668 64.5858 226.092 65.5098 224.94V218.82H67.1478V228H65.7078L65.5098 226.848V226.578H65.4738C64.5018 227.646 63.3978 228.18 62.1618 228.18ZM74.8402 220.224H72.2302V225.66C72.2302 226.164 72.3682 226.476 72.6442 226.596C72.8722 226.692 73.1662 226.74 73.5262 226.74C73.8862 226.74 74.2822 226.644 74.7142 226.452H74.8402V227.784C74.3362 228.048 73.7962 228.18 73.2202 228.18C71.4682 228.18 70.5922 227.388 70.5922 225.804V220.224H68.8822V220.116L72.2302 216.84V218.82H74.8402V220.224ZM77.6444 219.936C78.5204 219.072 79.5404 218.64 80.7044 218.64C81.8684 218.64 82.8764 219.084 83.7284 219.972H83.7824V214.86H85.4204V228H83.9804L83.7824 226.848H83.7284C82.8764 227.736 81.8684 228.18 80.7044 228.18C79.5404 228.18 78.5204 227.748 77.6444 226.884C76.7804 226.02 76.3484 224.862 76.3484 223.41C76.3484 221.958 76.7804 220.8 77.6444 219.936ZM80.9384 226.65C82.0184 226.65 82.9664 226.2 83.7824 225.3V221.52C82.9664 220.62 82.0184 220.17 80.9384 220.17C80.0504 220.17 79.3364 220.452 78.7964 221.016C78.2564 221.58 77.9864 222.378 77.9864 223.41C77.9864 224.442 78.2564 225.24 78.7964 225.804C79.3364 226.368 80.0504 226.65 80.9384 226.65ZM87.7038 223.41C87.7038 221.982 88.1238 220.83 88.9638 219.954C89.8038 219.078 90.9138 218.64 92.2938 218.64C93.6858 218.64 94.8018 219.078 95.6418 219.954C96.4938 220.83 96.9198 221.982 96.9198 223.41C96.9198 224.838 96.4938 225.99 95.6418 226.866C94.8018 227.742 93.6858 228.18 92.2938 228.18C90.9138 228.18 89.8038 227.742 88.9638 226.866C88.1238 225.99 87.7038 224.838 87.7038 223.41ZM90.2238 225.876C90.8238 226.416 91.5198 226.686 92.3118 226.686C93.1038 226.686 93.7938 226.416 94.3818 225.876C94.9818 225.324 95.2818 224.502 95.2818 223.41C95.2818 222.306 94.9818 221.484 94.3818 220.944C93.7938 220.404 93.1038 220.134 92.3118 220.134C91.5198 220.134 90.8238 220.404 90.2238 220.944C89.6358 221.484 89.3418 222.306 89.3418 223.41C89.3418 224.502 89.6358 225.324 90.2238 225.876ZM98.655 223.41C98.655 221.982 99.075 220.83 99.915 219.954C100.755 219.078 101.865 218.64 103.245 218.64C104.637 218.64 105.753 219.078 106.593 219.954C107.445 220.83 107.871 221.982 107.871 223.41C107.871 224.838 107.445 225.99 106.593 226.866C105.753 227.742 104.637 228.18 103.245 228.18C101.865 228.18 100.755 227.742 99.915 226.866C99.075 225.99 98.655 224.838 98.655 223.41ZM101.175 225.876C101.775 226.416 102.471 226.686 103.263 226.686C104.055 226.686 104.745 226.416 105.333 225.876C105.933 225.324 106.233 224.502 106.233 223.41C106.233 222.306 105.933 221.484 105.333 220.944C104.745 220.404 104.055 220.134 103.263 220.134C102.471 220.134 101.775 220.404 101.175 220.944C100.587 221.484 100.293 222.306 100.293 223.41C100.293 224.502 100.587 225.324 101.175 225.876ZM115.222 218.64H115.366V220.206H115.222C114.514 220.206 113.854 220.344 113.242 220.62C112.63 220.896 112.15 221.28 111.802 221.772V228H110.164V218.82H111.604L111.802 219.972V220.242H111.838C112.702 219.174 113.83 218.64 115.222 218.64ZM126.643 220.224H124.033V225.66C124.033 226.164 124.171 226.476 124.447 226.596C124.675 226.692 124.969 226.74 125.329 226.74C125.689 226.74 126.085 226.644 126.517 226.452H126.643V227.784C126.139 228.048 125.599 228.18 125.023 228.18C123.271 228.18 122.395 227.388 122.395 225.804V220.224H120.685V220.116L124.033 216.84V218.82H126.643V220.224ZM136.773 223.41V223.986H129.825C129.921 224.826 130.233 225.48 130.761 225.948C131.289 226.416 132.087 226.65 133.155 226.65C134.235 226.65 135.231 226.35 136.143 225.75H136.233V227.334C135.225 227.898 134.037 228.18 132.669 228.18C131.313 228.18 130.221 227.766 129.393 226.938C128.577 226.098 128.169 224.97 128.169 223.554C128.169 222.126 128.535 220.95 129.267 220.026C129.999 219.102 131.067 218.64 132.471 218.64C133.875 218.64 134.943 219.102 135.675 220.026C136.407 220.95 136.773 222.078 136.773 223.41ZM129.825 222.654H135.135C135.087 221.79 134.793 221.136 134.253 220.692C133.725 220.248 133.131 220.026 132.471 220.026C131.811 220.026 131.217 220.248 130.689 220.692C130.161 221.136 129.873 221.79 129.825 222.654ZM149.739 218.64C150.723 218.64 151.467 218.988 151.971 219.684C152.487 220.38 152.745 221.184 152.745 222.096V228H151.107V222.42C151.107 221.64 150.963 221.07 150.675 220.71C150.399 220.338 149.931 220.152 149.271 220.152C148.239 220.152 147.375 220.728 146.679 221.88V228H145.041V222.42C145.041 221.64 144.903 221.07 144.627 220.71C144.351 220.338 143.877 220.152 143.205 220.152C142.173 220.152 141.309 220.728 140.613 221.88V228H138.975V218.82H140.415L140.613 219.972V220.242H140.649C141.417 219.174 142.425 218.64 143.673 218.64C144.345 218.64 144.915 218.814 145.383 219.162C145.863 219.51 146.205 219.942 146.409 220.458H146.463C147.195 219.246 148.287 218.64 149.739 218.64ZM163.274 226.884C162.41 227.748 161.396 228.18 160.232 228.18C159.068 228.18 158.06 227.736 157.208 226.848H157.154V232.14H155.516V218.82H156.956L157.154 219.972H157.208C158.06 219.084 159.068 218.64 160.232 218.64C161.396 218.64 162.41 219.072 163.274 219.936C164.15 220.8 164.588 221.958 164.588 223.41C164.588 224.862 164.15 226.02 163.274 226.884ZM159.998 220.17C158.918 220.17 157.97 220.62 157.154 221.52V225.3C157.97 226.2 158.918 226.65 159.998 226.65C160.886 226.65 161.6 226.368 162.14 225.804C162.68 225.24 162.95 224.442 162.95 223.41C162.95 222.378 162.68 221.58 162.14 221.016C161.6 220.452 160.886 220.17 159.998 220.17ZM175.309 214.32V214.374C173.557 216.702 172.681 219.402 172.681 222.474C172.681 225.534 173.557 228.228 175.309 230.556V230.61H173.617C171.901 228.246 171.043 225.534 171.043 222.474C171.043 219.402 171.901 216.684 173.617 214.32H175.309ZM177.478 215.436H185.974V216.966H179.116V220.944H185.344V222.474H179.116V228H177.478V215.436ZM187.169 214.374V214.32H188.861C190.577 216.684 191.435 219.402 191.435 222.474C191.435 225.534 190.577 228.246 188.861 230.61H187.169V230.556C188.921 228.228 189.797 225.534 189.797 222.474C189.797 219.402 188.921 216.702 187.169 214.374ZM193.658 220.836V218.82H195.674V220.836H193.658ZM193.658 228V225.984H195.674V228H193.658Z"></path>
<path fill="black" d="M25.754 266.056C26.894 264.856 28.412 264.256 30.308 264.256C32.204 264.256 33.722 264.856 34.862 266.056C36.002 267.256 36.59 268.81 36.626 270.718C36.59 272.626 36.002 274.18 34.862 275.38C33.722 276.58 32.204 277.18 30.308 277.18C28.412 277.18 26.894 276.58 25.754 275.38C24.614 274.18 24.026 272.626 23.99 270.718C24.026 268.81 24.614 267.256 25.754 266.056ZM25.628 270.718C25.628 272.146 26.042 273.328 26.87 274.264C27.71 275.188 28.85 275.65 30.29 275.65C31.742 275.65 32.888 275.188 33.728 274.264C34.568 273.328 34.988 272.146 34.988 270.718C34.988 269.29 34.568 268.114 33.728 267.19C32.888 266.254 31.742 265.786 30.29 265.786C28.85 265.786 27.71 266.254 26.87 267.19C26.042 268.114 25.628 269.29 25.628 270.718ZM42.1618 277.18C41.1658 277.18 40.3798 276.844 39.8038 276.172C39.2278 275.5 38.9398 274.66 38.9398 273.652V267.82H40.5778V273.472C40.5778 274.936 41.2378 275.668 42.5578 275.668C43.6018 275.668 44.5858 275.092 45.5098 273.94V267.82H47.1478V277H45.7078L45.5098 275.848V275.578H45.4738C44.5018 276.646 43.3978 277.18 42.1618 277.18ZM54.8402 269.224H52.2302V274.66C52.2302 275.164 52.3682 275.476 52.6442 275.596C52.8722 275.692 53.1662 275.74 53.5262 275.74C53.8862 275.74 54.2822 275.644 54.7142 275.452H54.8402V276.784C54.3362 277.048 53.7962 277.18 53.2202 277.18C51.4682 277.18 50.5922 276.388 50.5922 274.804V269.224H48.8822V269.116L52.2302 265.84V267.82H54.8402V269.224ZM57.6444 268.936C58.5204 268.072 59.5404 267.64 60.7044 267.64C61.8684 267.64 62.8764 268.084 63.7284 268.972H63.7824V263.86H65.4204V277H63.9804L63.7824 275.848H63.7284C62.8764 276.736 61.8684 277.18 60.7044 277.18C59.5404 277.18 58.5204 276.748 57.6444 275.884C56.7804 275.02 56.3484 273.862 56.3484 272.41C56.3484 270.958 56.7804 269.8 57.6444 268.936ZM60.9384 275.65C62.0184 275.65 62.9664 275.2 63.7824 274.3V270.52C62.9664 269.62 62.0184 269.17 60.9384 269.17C60.0504 269.17 59.3364 269.452 58.7964 270.016C58.2564 270.58 57.9864 271.378 57.9864 272.41C57.9864 273.442 58.2564 274.24 58.7964 274.804C59.3364 275.368 60.0504 275.65 60.9384 275.65ZM67.7038 272.41C67.7038 270.982 68.1238 269.83 68.9638 268.954C69.8038 268.078 70.9138 267.64 72.2938 267.64C73.6858 267.64 74.8018 268.078 75.6418 268.954C76.4938 269.83 76.9198 270.982 76.9198 272.41C76.9198 273.838 76.4938 274.99 75.6418 275.866C74.8018 276.742 73.6858 277.18 72.2938 277.18C70.9138 277.18 69.8038 276.742 68.9638 275.866C68.1238 274.99 67.7038 273.838 67.7038 272.41ZM70.2238 274.876C70.8238 275.416 71.5198 275.686 72.3118 275.686C73.1038 275.686 73.7938 275.416 74.3818 274.876C74.9818 274.324 75.2818 273.502 75.2818 272.41C75.2818 271.306 74.9818 270.484 74.3818 269.944C73.7938 269.404 73.1038 269.134 72.3118 269.134C71.5198 269.134 70.8238 269.404 70.2238 269.944C69.6358 270.484 69.3418 271.306 69.3418 272.41C69.3418 273.502 69.6358 274.324 70.2238 274.876ZM78.655 272.41C78.655 270.982 79.075 269.83 79.915 268.954C80.755 268.078 81.865 267.64 83.245 267.64C84.637 267.64 85.753 268.078 86.593 268.954C87.445 269.83 87.871 270.982 87.871 272.41C87.871 273.838 87.445 274.99 86.593 275.866C85.753 276.742 84.637 277.18 83.245 277.18C81.865 277.18 80.755 276.742 79.915 275.866C79.075 274.99 78.655 273.838 78.655 272.41ZM81.175 274.876C81.775 275.416 82.471 275.686 83.263 275.686C84.055 275.686 84.745 275.416 85.333 274.876C85.933 274.324 86.233 273.502 86.233 272.41C86.233 271.306 85.933 270.484 85.333 269.944C84.745 269.404 84.055 269.134 83.263 269.134C82.471 269.134 81.775 269.404 81.175 269.944C80.587 270.484 80.293 271.306 80.293 272.41C80.293 273.502 80.587 274.324 81.175 274.876ZM95.2222 267.64H95.3662V269.206H95.2222C94.5142 269.206 93.8542 269.344 93.2422 269.62C92.6302 269.896 92.1502 270.28 91.8022 270.772V277H90.1642V267.82H91.6042L91.8022 268.972V269.242H91.8382C92.7022 268.174 93.8302 267.64 95.2222 267.64ZM106.787 267.64C107.783 267.64 108.569 267.976 109.145 268.648C109.721 269.32 110.009 270.16 110.009 271.168V277H108.371V271.348C108.371 269.884 107.711 269.152 106.391 269.152C105.347 269.152 104.363 269.728 103.439 270.88V277H101.801V263.86H103.439V269.242H103.493C104.465 268.174 105.563 267.64 106.787 267.64ZM115.92 277.18C114.924 277.18 114.138 276.844 113.562 276.172C112.986 275.5 112.698 274.66 112.698 273.652V267.82H114.336V273.472C114.336 274.936 114.996 275.668 116.316 275.668C117.36 275.668 118.344 275.092 119.268 273.94V267.82H120.906V277H119.466L119.268 275.848V275.578H119.232C118.26 276.646 117.156 277.18 115.92 277.18ZM134.52 267.64C135.504 267.64 136.248 267.988 136.752 268.684C137.268 269.38 137.526 270.184 137.526 271.096V277H135.888V271.42C135.888 270.64 135.744 270.07 135.456 269.71C135.18 269.338 134.712 269.152 134.052 269.152C133.02 269.152 132.156 269.728 131.46 270.88V277H129.822V271.42C129.822 270.64 129.684 270.07 129.408 269.71C129.132 269.338 128.658 269.152 127.986 269.152C126.954 269.152 126.09 269.728 125.394 270.88V277H123.756V267.82H125.196L125.394 268.972V269.242H125.43C126.198 268.174 127.206 267.64 128.454 267.64C129.126 267.64 129.696 267.814 130.164 268.162C130.644 268.51 130.986 268.942 131.19 269.458H131.244C131.976 268.246 133.068 267.64 134.52 267.64ZM140.369 277V267.82H142.007V277H140.369ZM142.079 264.112V265.876H140.315V264.112H142.079ZM145.658 268.936C146.534 268.072 147.554 267.64 148.718 267.64C149.882 267.64 150.89 268.084 151.742 268.972H151.796V263.86H153.434V277H151.994L151.796 275.848H151.742C150.89 276.736 149.882 277.18 148.718 277.18C147.554 277.18 146.534 276.748 145.658 275.884C144.794 275.02 144.362 273.862 144.362 272.41C144.362 270.958 144.794 269.8 145.658 268.936ZM148.952 275.65C150.032 275.65 150.98 275.2 151.796 274.3V270.52C150.98 269.62 150.032 269.17 148.952 269.17C148.064 269.17 147.35 269.452 146.81 270.016C146.27 270.58 146 271.378 146 272.41C146 273.442 146.27 274.24 146.81 274.804C147.35 275.368 148.064 275.65 148.952 275.65ZM156.348 277V267.82H157.986V277H156.348ZM158.058 264.112V265.876H156.294V264.112H158.058ZM165.741 269.224H163.131V274.66C163.131 275.164 163.269 275.476 163.545 275.596C163.773 275.692 164.067 275.74 164.427 275.74C164.787 275.74 165.183 275.644 165.615 275.452H165.741V276.784C165.237 277.048 164.697 277.18 164.121 277.18C162.369 277.18 161.493 276.388 161.493 274.804V269.224H159.783V269.116L163.131 265.84V267.82H165.741V269.224ZM175.907 267.82L170.381 281.14H168.725L170.273 277.144L166.475 267.82H168.239L171.119 275.074H171.191L174.143 267.82H175.907ZM191.26 264.382H192.664L184.726 277.072H183.322L191.26 264.382ZM182.188 265.048C182.692 264.436 183.406 264.13 184.33 264.13C185.254 264.13 185.968 264.436 186.472 265.048C186.976 265.648 187.228 266.416 187.228 267.352C187.228 268.288 186.976 269.062 186.472 269.674C185.968 270.274 185.254 270.574 184.33 270.574C183.406 270.574 182.692 270.274 182.188 269.674C181.684 269.062 181.432 268.288 181.432 267.352C181.432 266.416 181.684 265.648 182.188 265.048ZM183.124 268.828C183.412 269.212 183.814 269.404 184.33 269.404C184.846 269.404 185.248 269.212 185.536 268.828C185.824 268.444 185.968 267.952 185.968 267.352C185.968 266.752 185.824 266.26 185.536 265.876C185.248 265.492 184.846 265.3 184.33 265.3C183.814 265.3 183.412 265.492 183.124 265.876C182.836 266.26 182.692 266.752 182.692 267.352C182.692 267.952 182.836 268.444 183.124 268.828ZM189.496 271.798C190 271.186 190.714 270.88 191.638 270.88C192.562 270.88 193.276 271.186 193.78 271.798C194.284 272.398 194.536 273.166 194.536 274.102C194.536 275.038 194.284 275.812 193.78 276.424C193.276 277.024 192.562 277.324 191.638 277.324C190.714 277.324 190 277.024 189.496 276.424C188.992 275.812 188.74 275.038 188.74 274.102C188.74 273.166 188.992 272.398 189.496 271.798ZM190.432 275.578C190.72 275.962 191.122 276.154 191.638 276.154C192.154 276.154 192.556 275.962 192.844 275.578C193.132 275.194 193.276 274.702 193.276 274.102C193.276 273.502 193.132 273.01 192.844 272.626C192.556 272.242 192.154 272.05 191.638 272.05C191.122 272.05 190.72 272.242 190.432 272.626C190.144 273.01 190 273.502 190 274.102C190 274.702 190.144 275.194 190.432 275.578ZM196.65 269.836V267.82H198.666V269.836H196.65ZM196.65 277V274.984H198.666V277H196.65Z"></path>
<line stroke="black" y2="137.5" x2="365" y1="137.5" x1="213"></line>
<line stroke="black" y2="276.5" x2="366" y1="276.5" x1="214"></line>
<line stroke="black" y2="233.5" x2="366" y1="233.5" x1="214"></line>
<line stroke="black" y2="182.5" x2="365" y1="182.5" x1="213"></line>
<rect fill="#1E96EB" rx="10" height="47" width="150" y="337" x="130"></rect>
<path fill="white" d="M161.484 358.046C160.248 357.23 158.886 356.822 157.398 356.822C155.91 356.822 154.746 357.278 153.906 358.19C153.066 359.102 152.646 360.278 152.646 361.718C152.646 363.158 153.066 364.334 153.906 365.246C154.746 366.158 155.91 366.614 157.398 366.614C158.886 366.614 160.248 366.206 161.484 365.39H161.574V367.01C160.278 367.79 158.856 368.18 157.308 368.18C155.472 368.18 153.96 367.598 152.772 366.434C151.596 365.258 151.008 363.686 151.008 361.718C151.008 359.75 151.596 358.184 152.772 357.02C153.96 355.844 155.472 355.256 157.308 355.256C158.856 355.256 160.278 355.646 161.574 356.426V358.046H161.484ZM173.242 368L171.892 364.778H165.79L164.44 368H162.658L167.986 355.436H169.696L175.024 368H173.242ZM166.438 363.194V363.284H171.244V363.194L168.868 357.452H168.832L166.438 363.194ZM185.127 366.362V368H176.865V355.436H178.503V366.362H185.127ZM196.974 358.046C195.738 357.23 194.376 356.822 192.888 356.822C191.4 356.822 190.236 357.278 189.396 358.19C188.556 359.102 188.136 360.278 188.136 361.718C188.136 363.158 188.556 364.334 189.396 365.246C190.236 366.158 191.4 366.614 192.888 366.614C194.376 366.614 195.738 366.206 196.974 365.39H197.064V367.01C195.768 367.79 194.346 368.18 192.798 368.18C190.962 368.18 189.45 367.598 188.262 366.434C187.086 365.258 186.498 363.686 186.498 361.718C186.498 359.75 187.086 358.184 188.262 357.02C189.45 355.844 190.962 355.256 192.798 355.256C194.346 355.256 195.768 355.646 197.064 356.426V358.046H196.974ZM208.409 355.436H210.047V363.284C210.047 364.1 209.891 364.832 209.579 365.48C209.279 366.116 208.871 366.626 208.355 367.01C207.851 367.394 207.299 367.688 206.699 367.892C206.111 368.084 205.505 368.18 204.881 368.18C204.257 368.18 203.645 368.084 203.045 367.892C202.457 367.688 201.905 367.394 201.389 367.01C200.885 366.626 200.477 366.116 200.165 365.48C199.865 364.832 199.715 364.1 199.715 363.284V355.436H201.353V363.338C201.353 364.394 201.701 365.216 202.397 365.804C203.093 366.392 203.921 366.686 204.881 366.686C205.841 366.686 206.669 366.392 207.365 365.804C208.061 365.216 208.409 364.394 208.409 363.338V355.436ZM221.707 366.362V368H213.445V355.436H215.083V366.362H221.707ZM232.744 368L231.394 364.778H225.292L223.942 368H222.16L227.488 355.436H229.198L234.526 368H232.744ZM225.94 363.194V363.284H230.746V363.194L228.37 357.452H228.334L225.94 363.194ZM245.277 355.436V356.966H240.939V368H239.301V356.966H234.963V355.436H245.277ZM256.083 356.966H249.009V360.944H255.435V362.474H249.009V366.47H256.083V368H247.371V355.436H256.083V356.966Z"></path>
<rect fill="#1E96EB" rx="10" height="38" width="112" y="405" x="150"></rect>
<path fill="white" d="M186.448 427.452V427.884C186.448 428.268 186.55 428.616 186.754 428.928V429H185.062C184.894 428.724 184.81 428.4 184.81 428.028V427.74C184.81 426.636 184.696 425.88 184.468 425.472C184.36 425.256 184.216 425.028 184.036 424.788C183.664 424.332 183.022 424.104 182.11 424.104H178.384V429H176.746V416.436H181.75C183.382 416.436 184.606 416.772 185.422 417.444C186.238 418.116 186.646 418.998 186.646 420.09C186.646 420.822 186.448 421.482 186.052 422.07C185.656 422.646 185.08 423.066 184.324 423.33V423.366C185.74 423.738 186.448 425.1 186.448 427.452ZM181.642 422.556C182.674 422.556 183.49 422.352 184.09 421.944C184.702 421.536 185.008 420.966 185.008 420.234C185.008 419.502 184.744 418.944 184.216 418.56C183.7 418.176 182.812 417.984 181.552 417.984H178.384V422.556H181.642ZM198.272 417.966H191.198V421.944H197.624V423.474H191.198V427.47H198.272V429H189.56V416.436H198.272V417.966ZM201.957 419.82C201.957 420.3 202.143 420.696 202.515 421.008C202.899 421.32 203.373 421.542 203.937 421.674C204.501 421.794 205.113 421.95 205.773 422.142C206.445 422.322 207.063 422.52 207.627 422.736C208.191 422.952 208.659 423.312 209.031 423.816C209.415 424.308 209.607 424.926 209.607 425.67C209.607 426.702 209.181 427.548 208.329 428.208C207.489 428.856 206.313 429.18 204.801 429.18C203.289 429.18 201.849 428.856 200.481 428.208V426.606H200.571C201.819 427.302 203.241 427.65 204.837 427.65C206.937 427.65 207.987 426.954 207.987 425.562C207.987 424.878 207.477 424.374 206.457 424.05C206.013 423.906 205.521 423.768 204.981 423.636C204.441 423.504 203.895 423.348 203.343 423.168C202.803 422.988 202.305 422.778 201.849 422.538C201.405 422.286 201.039 421.944 200.751 421.512C200.475 421.068 200.337 420.546 200.337 419.946C200.337 418.902 200.745 418.026 201.561 417.318C202.389 416.61 203.499 416.256 204.891 416.256C206.295 416.256 207.561 416.472 208.689 416.904V418.434H208.563C207.435 417.978 206.349 417.75 205.305 417.75C204.273 417.75 203.457 417.936 202.857 418.308C202.257 418.668 201.957 419.172 201.957 419.82ZM220.843 417.966H213.769V421.944H220.195V423.474H213.769V427.47H220.843V429H212.131V416.436H220.843V417.966ZM232.519 416.436V417.966H228.181V429H226.543V417.966H222.205V416.436H232.519Z"></path>
<path fill="black" d="M31.676 610V603.95L26.682 594.6H28.772L32.6 602.08L36.428 594.6H38.518L33.524 603.95V610H31.676ZM45.7914 610.264C44.7647 610.264 43.8554 610.029 43.0634 609.56C42.2714 609.091 41.6481 608.431 41.1934 607.58C40.7387 606.715 40.5114 605.703 40.5114 604.544C40.5114 603.385 40.7387 602.381 41.1934 601.53C41.6481 600.665 42.2714 599.997 43.0634 599.528C43.8554 599.059 44.7647 598.824 45.7914 598.824C46.8181 598.824 47.7274 599.059 48.5194 599.528C49.3114 599.997 49.9347 600.665 50.3894 601.53C50.8441 602.381 51.0714 603.385 51.0714 604.544C51.0714 605.703 50.8441 606.715 50.3894 607.58C49.9347 608.431 49.3114 609.091 48.5194 609.56C47.7274 610.029 46.8181 610.264 45.7914 610.264ZM45.7914 608.504C46.4221 608.504 46.9941 608.365 47.5074 608.086C48.0207 607.807 48.4241 607.375 48.7174 606.788C49.0254 606.201 49.1794 605.453 49.1794 604.544C49.1794 603.635 49.0254 602.887 48.7174 602.3C48.4241 601.713 48.0207 601.281 47.5074 601.002C46.9941 600.723 46.4221 600.584 45.7914 600.584C45.1754 600.584 44.6107 600.723 44.0974 601.002C43.5841 601.281 43.1734 601.713 42.8654 602.3C42.5574 602.887 42.4034 603.635 42.4034 604.544C42.4034 605.908 42.7334 606.913 43.3934 607.558C44.0534 608.189 44.8527 608.504 45.7914 608.504ZM58.2128 610.264C56.8928 610.264 55.8955 609.868 55.2208 609.076C54.5461 608.284 54.2088 607.14 54.2088 605.644V599.088H56.0568V605.424C56.0568 606.392 56.2695 607.155 56.6948 607.712C57.1348 608.255 57.7948 608.526 58.6748 608.526C59.5548 608.526 60.2955 608.233 60.8968 607.646C61.4981 607.045 61.7988 606.187 61.7988 605.072V599.088H63.6468V610H62.1068L61.9088 608.35H61.7988C61.5055 608.878 61.0435 609.333 60.4128 609.714C59.7821 610.081 59.0488 610.264 58.2128 610.264ZM85.4756 610.264C84.0823 610.264 82.953 609.941 82.0876 609.296C81.237 608.636 80.7603 607.734 80.6576 606.59H82.5716C82.6596 607.191 82.953 607.683 83.4516 608.064C83.965 608.445 84.6543 608.636 85.5196 608.636C86.341 608.636 86.9496 608.46 87.3456 608.108C87.7563 607.756 87.9616 607.353 87.9616 606.898C87.9616 606.282 87.7196 605.864 87.2356 605.644C86.7516 605.409 86.0256 605.233 85.0576 605.116C83.899 604.984 82.9383 604.669 82.1756 604.17C81.413 603.671 81.0316 602.923 81.0316 601.926C81.0316 601.031 81.4056 600.291 82.1536 599.704C82.9016 599.117 83.921 598.824 85.2116 598.824C86.4876 598.824 87.4923 599.117 88.2256 599.704C88.959 600.276 89.377 601.097 89.4796 602.168H87.6536C87.6096 601.64 87.353 601.222 86.8836 600.914C86.429 600.591 85.857 600.43 85.1676 600.43C84.449 600.43 83.8916 600.569 83.4956 600.848C83.0996 601.112 82.9016 601.464 82.9016 601.904C82.9016 602.344 83.1216 602.711 83.5616 603.004C84.0163 603.283 84.7276 603.466 85.6956 603.554C86.4583 603.642 87.155 603.789 87.7856 603.994C88.4163 604.199 88.915 604.522 89.2816 604.962C89.663 605.402 89.8536 606.018 89.8536 606.81C89.8683 607.47 89.685 608.064 89.3036 608.592C88.937 609.105 88.4236 609.516 87.7636 609.824C87.1036 610.117 86.341 610.264 85.4756 610.264ZM93.783 610V594.16H95.631V600.738C95.9244 600.181 96.4084 599.726 97.083 599.374C97.7577 599.007 98.4984 598.824 99.305 598.824C100.64 598.824 101.652 599.227 102.341 600.034C103.045 600.841 103.397 601.97 103.397 603.422V610H101.549V603.664C101.549 602.681 101.307 601.919 100.823 601.376C100.354 600.833 99.6937 600.562 98.843 600.562C98.2564 600.562 97.721 600.694 97.237 600.958C96.753 601.222 96.3644 601.611 96.071 602.124C95.7777 602.637 95.631 603.268 95.631 604.016V610H93.783ZM111.748 610.264C110.722 610.264 109.812 610.029 109.02 609.56C108.228 609.091 107.605 608.431 107.15 607.58C106.696 606.715 106.468 605.703 106.468 604.544C106.468 603.385 106.696 602.381 107.15 601.53C107.605 600.665 108.228 599.997 109.02 599.528C109.812 599.059 110.722 598.824 111.748 598.824C112.775 598.824 113.684 599.059 114.476 599.528C115.268 599.997 115.892 600.665 116.346 601.53C116.801 602.381 117.028 603.385 117.028 604.544C117.028 605.703 116.801 606.715 116.346 607.58C115.892 608.431 115.268 609.091 114.476 609.56C113.684 610.029 112.775 610.264 111.748 610.264ZM111.748 608.504C112.379 608.504 112.951 608.365 113.464 608.086C113.978 607.807 114.381 607.375 114.674 606.788C114.982 606.201 115.136 605.453 115.136 604.544C115.136 603.635 114.982 602.887 114.674 602.3C114.381 601.713 113.978 601.281 113.464 601.002C112.951 600.723 112.379 600.584 111.748 600.584C111.132 600.584 110.568 600.723 110.054 601.002C109.541 601.281 109.13 601.713 108.822 602.3C108.514 602.887 108.36 603.635 108.36 604.544C108.36 605.908 108.69 606.913 109.35 607.558C110.01 608.189 110.81 608.504 111.748 608.504ZM124.17 610.264C122.85 610.264 121.853 609.868 121.178 609.076C120.503 608.284 120.166 607.14 120.166 605.644V599.088H122.014V605.424C122.014 606.392 122.227 607.155 122.652 607.712C123.092 608.255 123.752 608.526 124.632 608.526C125.512 608.526 126.253 608.233 126.854 607.646C127.455 607.045 127.756 606.187 127.756 605.072V599.088H129.604V610H128.064L127.866 608.35H127.756C127.463 608.878 127.001 609.333 126.37 609.714C125.739 610.081 125.006 610.264 124.17 610.264ZM133.181 610V608.416H136.899V596.294C136.899 595.927 136.716 595.744 136.349 595.744H133.577V594.16H136.789C137.42 594.16 137.904 594.329 138.241 594.666C138.579 595.003 138.747 595.487 138.747 596.118V608.416H142.465V610H133.181ZM150.949 610.264C150.025 610.264 149.196 610.044 148.463 609.604C147.744 609.164 147.179 608.519 146.769 607.668C146.358 606.803 146.153 605.754 146.153 604.522C146.153 603.305 146.358 602.271 146.769 601.42C147.179 600.569 147.744 599.924 148.463 599.484C149.196 599.044 150.025 598.824 150.949 598.824C151.814 598.824 152.525 598.993 153.083 599.33C153.655 599.667 154.08 600.107 154.359 600.65V594.16H156.207V610H154.689L154.491 608.306H154.359C154.065 608.907 153.633 609.384 153.061 609.736C152.489 610.088 151.785 610.264 150.949 610.264ZM151.191 608.504C152.115 608.504 152.877 608.181 153.479 607.536C154.08 606.876 154.381 605.879 154.381 604.544C154.381 603.209 154.08 602.219 153.479 601.574C152.877 600.914 152.115 600.584 151.191 600.584C150.267 600.584 149.504 600.914 148.903 601.574C148.316 602.219 148.023 603.209 148.023 604.544C148.023 605.879 148.316 606.876 148.903 607.536C149.504 608.181 150.267 608.504 151.191 608.504ZM177.705 610.264C176.679 610.264 175.769 610.029 174.977 609.56C174.185 609.091 173.562 608.431 173.107 607.58C172.653 606.715 172.425 605.703 172.425 604.544C172.425 603.385 172.653 602.381 173.107 601.53C173.562 600.665 174.185 599.997 174.977 599.528C175.769 599.059 176.679 598.824 177.705 598.824C178.732 598.824 179.641 599.059 180.433 599.528C181.225 599.997 181.849 600.665 182.303 601.53C182.758 602.381 182.985 603.385 182.985 604.544C182.985 605.703 182.758 606.715 182.303 607.58C181.849 608.431 181.225 609.091 180.433 609.56C179.641 610.029 178.732 610.264 177.705 610.264ZM177.705 608.504C178.336 608.504 178.908 608.365 179.421 608.086C179.935 607.807 180.338 607.375 180.631 606.788C180.939 606.201 181.093 605.453 181.093 604.544C181.093 603.635 180.939 602.887 180.631 602.3C180.338 601.713 179.935 601.281 179.421 601.002C178.908 600.723 178.336 600.584 177.705 600.584C177.089 600.584 176.525 600.723 176.011 601.002C175.498 601.281 175.087 601.713 174.779 602.3C174.471 602.887 174.317 603.635 174.317 604.544C174.317 605.908 174.647 606.913 175.307 607.558C175.967 608.189 176.767 608.504 177.705 608.504ZM186.013 614.84V599.088H187.509L187.729 600.892H187.861C188.14 600.305 188.587 599.814 189.203 599.418C189.819 599.022 190.545 598.824 191.381 598.824C192.261 598.824 193.053 599.044 193.757 599.484C194.476 599.924 195.04 600.577 195.451 601.442C195.862 602.293 196.067 603.334 196.067 604.566C196.067 605.783 195.854 606.817 195.429 607.668C195.018 608.519 194.446 609.164 193.713 609.604C192.994 610.044 192.166 610.264 191.227 610.264C190.391 610.264 189.68 610.088 189.093 609.736C188.521 609.369 188.11 608.944 187.861 608.46V614.84H186.013ZM191.007 608.504C191.931 608.504 192.694 608.181 193.295 607.536C193.896 606.876 194.197 605.879 194.197 604.544C194.197 603.209 193.896 602.219 193.295 601.574C192.694 600.914 191.931 600.584 191.007 600.584C190.083 600.584 189.32 600.914 188.719 601.574C188.118 602.219 187.817 603.209 187.817 604.544C187.817 605.879 188.118 606.876 188.719 607.536C189.32 608.181 190.083 608.504 191.007 608.504ZM204.198 610.264C203.172 610.264 202.262 610.029 201.47 609.56C200.693 609.076 200.077 608.409 199.622 607.558C199.168 606.693 198.94 605.688 198.94 604.544C198.94 603.4 199.16 602.403 199.6 601.552C200.055 600.687 200.678 600.019 201.47 599.55C202.262 599.066 203.186 598.824 204.242 598.824C205.298 598.824 206.2 599.066 206.948 599.55C207.696 600.019 208.268 600.643 208.664 601.42C209.06 602.197 209.258 603.033 209.258 603.928C209.258 604.089 209.251 604.251 209.236 604.412C209.236 604.573 209.236 604.757 209.236 604.962H200.766C200.81 605.769 200.994 606.443 201.316 606.986C201.654 607.514 202.072 607.91 202.57 608.174C203.084 608.438 203.626 608.57 204.198 608.57C205.005 608.57 205.636 608.401 206.09 608.064C206.545 607.727 206.89 607.257 207.124 606.656H208.95C208.701 607.668 208.18 608.526 207.388 609.23C206.596 609.919 205.533 610.264 204.198 610.264ZM204.198 600.474C203.348 600.474 202.6 600.731 201.954 601.244C201.324 601.757 200.935 602.476 200.788 603.4H207.432C207.374 602.491 207.044 601.779 206.442 601.266C205.856 600.738 205.108 600.474 204.198 600.474ZM212.616 610V599.088H214.156L214.354 600.738H214.464C214.757 600.21 215.219 599.763 215.85 599.396C216.48 599.015 217.206 598.824 218.028 598.824C219.362 598.824 220.36 599.22 221.02 600.012C221.694 600.804 222.032 601.948 222.032 603.444V610H220.184V603.664C220.184 602.696 219.971 601.941 219.546 601.398C219.12 600.841 218.46 600.562 217.566 600.562C216.7 600.562 215.967 600.863 215.366 601.464C214.764 602.051 214.464 602.901 214.464 604.016V610H212.616ZM244.807 610C243.809 610 243.025 609.758 242.453 609.274C241.881 608.79 241.595 607.917 241.595 606.656V600.672H238.823V599.088H240.473C241.221 599.088 241.653 598.721 241.771 597.988L242.079 596.294H243.443V599.088H247.799V600.672H243.443V606.656C243.443 607.272 243.582 607.705 243.861 607.954C244.154 608.203 244.653 608.328 245.357 608.328H247.799V610H244.807ZM252.08 610V594.16H253.928V600.738C254.221 600.181 254.705 599.726 255.38 599.374C256.055 599.007 256.795 598.824 257.602 598.824C258.937 598.824 259.949 599.227 260.638 600.034C261.342 600.841 261.694 601.97 261.694 603.422V610H259.846V603.664C259.846 602.681 259.604 601.919 259.12 601.376C258.651 600.833 257.991 600.562 257.14 600.562C256.553 600.562 256.018 600.694 255.534 600.958C255.05 601.222 254.661 601.611 254.368 602.124C254.075 602.637 253.928 603.268 253.928 604.016V610H252.08ZM270.155 610.264C269.129 610.264 268.219 610.029 267.427 609.56C266.65 609.076 266.034 608.409 265.579 607.558C265.125 606.693 264.897 605.688 264.897 604.544C264.897 603.4 265.117 602.403 265.557 601.552C266.012 600.687 266.635 600.019 267.427 599.55C268.219 599.066 269.143 598.824 270.199 598.824C271.255 598.824 272.157 599.066 272.905 599.55C273.653 600.019 274.225 600.643 274.621 601.42C275.017 602.197 275.215 603.033 275.215 603.928C275.215 604.089 275.208 604.251 275.193 604.412C275.193 604.573 275.193 604.757 275.193 604.962H266.723C266.767 605.769 266.951 606.443 267.273 606.986C267.611 607.514 268.029 607.91 268.527 608.174C269.041 608.438 269.583 608.57 270.155 608.57C270.962 608.57 271.593 608.401 272.047 608.064C272.502 607.727 272.847 607.257 273.081 606.656H274.907C274.658 607.668 274.137 608.526 273.345 609.23C272.553 609.919 271.49 610.264 270.155 610.264ZM270.155 600.474C269.305 600.474 268.557 600.731 267.911 601.244C267.281 601.757 266.892 602.476 266.745 603.4H273.389C273.331 602.491 273.001 601.779 272.399 601.266C271.813 600.738 271.065 600.474 270.155 600.474ZM292.556 610L290.136 599.088H291.962L293.524 607.25L295.394 599.088H297.462L299.332 607.25L300.894 599.088H302.742L300.3 610H298.408L296.428 601.53L294.448 610H292.556ZM309.488 597.152C309.048 597.152 308.681 597.005 308.388 596.712C308.094 596.419 307.948 596.067 307.948 595.656C307.948 595.231 308.094 594.879 308.388 594.6C308.681 594.307 309.048 594.16 309.488 594.16C309.913 594.16 310.272 594.307 310.566 594.6C310.874 594.879 311.028 595.231 311.028 595.656C311.028 596.067 310.874 596.419 310.566 596.712C310.272 597.005 309.913 597.152 309.488 597.152ZM305.22 610V608.416H308.696V601.222C308.696 600.855 308.512 600.672 308.146 600.672H305.594V599.088H308.586C309.891 599.088 310.544 599.741 310.544 601.046V608.416H314.02V610H305.22ZM318.147 610V599.088H319.687L319.885 600.738H319.995C320.288 600.21 320.75 599.763 321.381 599.396C322.012 599.015 322.738 598.824 323.559 598.824C324.894 598.824 325.891 599.22 326.551 600.012C327.226 600.804 327.563 601.948 327.563 603.444V610H325.715V603.664C325.715 602.696 325.502 601.941 325.077 601.398C324.652 600.841 323.992 600.562 323.097 600.562C322.232 600.562 321.498 600.863 320.897 601.464C320.296 602.051 319.995 602.901 319.995 604.016V610H318.147ZM335.628 610.264C334.704 610.264 333.876 610.044 333.142 609.604C332.424 609.164 331.859 608.519 331.448 607.668C331.038 606.803 330.832 605.754 330.832 604.522C330.832 603.305 331.038 602.271 331.448 601.42C331.859 600.569 332.424 599.924 333.142 599.484C333.876 599.044 334.704 598.824 335.628 598.824C336.494 598.824 337.205 598.993 337.762 599.33C338.334 599.667 338.76 600.107 339.038 600.65V594.16H340.886V610H339.368L339.17 608.306H339.038C338.745 608.907 338.312 609.384 337.74 609.736C337.168 610.088 336.464 610.264 335.628 610.264ZM335.87 608.504C336.794 608.504 337.557 608.181 338.158 607.536C338.76 606.876 339.06 605.879 339.06 604.544C339.06 603.209 338.76 602.219 338.158 601.574C337.557 600.914 336.794 600.584 335.87 600.584C334.946 600.584 334.184 600.914 333.582 601.574C332.996 602.219 332.702 603.209 332.702 604.544C332.702 605.879 332.996 606.876 333.582 607.536C334.184 608.181 334.946 608.504 335.87 608.504ZM349.194 610.264C348.167 610.264 347.258 610.029 346.466 609.56C345.674 609.091 345.05 608.431 344.596 607.58C344.141 606.715 343.914 605.703 343.914 604.544C343.914 603.385 344.141 602.381 344.596 601.53C345.05 600.665 345.674 599.997 346.466 599.528C347.258 599.059 348.167 598.824 349.194 598.824C350.22 598.824 351.13 599.059 351.922 599.528C352.714 599.997 353.337 600.665 353.792 601.53C354.246 602.381 354.474 603.385 354.474 604.544C354.474 605.703 354.246 606.715 353.792 607.58C353.337 608.431 352.714 609.091 351.922 609.56C351.13 610.029 350.22 610.264 349.194 610.264ZM349.194 608.504C349.824 608.504 350.396 608.365 350.91 608.086C351.423 607.807 351.826 607.375 352.12 606.788C352.428 606.201 352.582 605.453 352.582 604.544C352.582 603.635 352.428 602.887 352.12 602.3C351.826 601.713 351.423 601.281 350.91 601.002C350.396 600.723 349.824 600.584 349.194 600.584C348.578 600.584 348.013 600.723 347.5 601.002C346.986 601.281 346.576 601.713 346.268 602.3C345.96 602.887 345.806 603.635 345.806 604.544C345.806 605.908 346.136 606.913 346.796 607.558C347.456 608.189 348.255 608.504 349.194 608.504ZM358.513 610L356.093 599.088H357.919L359.481 607.25L361.351 599.088H363.419L365.289 607.25L366.851 599.088H368.699L366.257 610H364.365L362.385 601.53L360.405 610H358.513ZM375.687 610.264C374.293 610.264 373.164 609.941 372.299 609.296C371.448 608.636 370.971 607.734 370.869 606.59H372.783C372.871 607.191 373.164 607.683 373.663 608.064C374.176 608.445 374.865 608.636 375.731 608.636C376.552 608.636 377.161 608.46 377.557 608.108C377.967 607.756 378.173 607.353 378.173 606.898C378.173 606.282 377.931 605.864 377.447 605.644C376.963 605.409 376.237 605.233 375.269 605.116C374.11 604.984 373.149 604.669 372.387 604.17C371.624 603.671 371.243 602.923 371.243 601.926C371.243 601.031 371.617 600.291 372.365 599.704C373.113 599.117 374.132 598.824 375.423 598.824C376.699 598.824 377.703 599.117 378.437 599.704C379.17 600.276 379.588 601.097 379.691 602.168H377.865C377.821 601.64 377.564 601.222 377.095 600.914C376.64 600.591 376.068 600.43 375.379 600.43C374.66 600.43 374.103 600.569 373.707 600.848C373.311 601.112 373.113 601.464 373.113 601.904C373.113 602.344 373.333 602.711 373.773 603.004C374.227 603.283 374.939 603.466 375.907 603.554C376.669 603.642 377.366 603.789 377.997 603.994C378.627 604.199 379.126 604.522 379.493 604.962C379.874 605.402 380.065 606.018 380.065 606.81C380.079 607.47 379.896 608.064 379.515 608.592C379.148 609.105 378.635 609.516 377.975 609.824C377.315 610.117 376.552 610.264 375.687 610.264Z"></path>
<path fill="black" d="M241.908 137.264C240.559 137.264 239.459 136.941 238.608 136.296C237.772 135.636 237.149 134.756 236.738 133.656C236.342 132.541 236.144 131.287 236.144 129.894C236.144 128.207 236.379 126.726 236.848 125.45C237.317 124.159 237.992 123.155 238.872 122.436C239.767 121.703 240.837 121.336 242.084 121.336C243.067 121.336 243.903 121.527 244.592 121.908C245.296 122.275 245.846 122.781 246.242 123.426C246.653 124.057 246.895 124.768 246.968 125.56H245.23C245.083 124.783 244.731 124.167 244.174 123.712C243.617 123.243 242.92 123.008 242.084 123.008C241.351 123.008 240.676 123.243 240.06 123.712C239.459 124.167 238.96 124.878 238.564 125.846C238.183 126.799 237.963 128.017 237.904 129.498H238.014C238.351 128.867 238.872 128.317 239.576 127.848C240.28 127.379 241.131 127.144 242.128 127.144C243.052 127.144 243.881 127.357 244.614 127.782C245.347 128.207 245.927 128.794 246.352 129.542C246.792 130.29 247.012 131.141 247.012 132.094C247.012 133.033 246.799 133.898 246.374 134.69C245.963 135.467 245.369 136.091 244.592 136.56C243.829 137.029 242.935 137.264 241.908 137.264ZM241.776 135.592C242.788 135.592 243.602 135.269 244.218 134.624C244.834 133.979 245.142 133.172 245.142 132.204C245.142 131.221 244.834 130.415 244.218 129.784C243.602 129.139 242.788 128.816 241.776 128.816C241.101 128.816 240.507 128.963 239.994 129.256C239.495 129.549 239.099 129.953 238.806 130.466C238.527 130.979 238.388 131.559 238.388 132.204C238.388 132.849 238.527 133.429 238.806 133.942C239.099 134.455 239.495 134.859 239.994 135.152C240.507 135.445 241.101 135.592 241.776 135.592ZM254.791 137.264C253.765 137.264 252.863 137.073 252.085 136.692C251.323 136.296 250.721 135.761 250.281 135.086C249.841 134.411 249.621 133.641 249.621 132.776C249.621 131.808 249.878 130.987 250.391 130.312C250.905 129.637 251.499 129.168 252.173 128.904V128.794C251.528 128.486 251.007 128.046 250.611 127.474C250.23 126.887 250.039 126.205 250.039 125.428C250.039 124.68 250.23 123.998 250.611 123.382C251.007 122.751 251.565 122.253 252.283 121.886C253.002 121.519 253.838 121.336 254.791 121.336C255.73 121.336 256.551 121.519 257.255 121.886C257.974 122.253 258.531 122.751 258.927 123.382C259.338 123.998 259.543 124.68 259.543 125.428C259.543 126.205 259.345 126.887 258.949 127.474C258.568 128.046 258.055 128.486 257.409 128.794V128.904C258.084 129.168 258.678 129.637 259.191 130.312C259.705 130.987 259.961 131.808 259.961 132.776C259.961 133.641 259.741 134.411 259.301 135.086C258.861 135.761 258.253 136.296 257.475 136.692C256.713 137.073 255.818 137.264 254.791 137.264ZM254.791 128.112C255.701 128.112 256.412 127.877 256.925 127.408C257.453 126.924 257.717 126.301 257.717 125.538C257.717 124.79 257.453 124.181 256.925 123.712C256.412 123.228 255.701 122.986 254.791 122.986C253.882 122.986 253.163 123.228 252.635 123.712C252.122 124.181 251.865 124.79 251.865 125.538C251.865 126.301 252.122 126.924 252.635 127.408C253.163 127.877 253.882 128.112 254.791 128.112ZM254.791 135.592C255.774 135.592 256.566 135.343 257.167 134.844C257.783 134.331 258.091 133.59 258.091 132.622C258.091 131.669 257.783 130.943 257.167 130.444C256.566 129.931 255.774 129.674 254.791 129.674C253.809 129.674 253.009 129.931 252.393 130.444C251.792 130.943 251.491 131.669 251.491 132.622C251.491 133.59 251.792 134.331 252.393 134.844C253.009 135.343 253.809 135.592 254.791 135.592Z"></path>
<path fill="black" d="M241.6 182.264C240.544 182.264 239.635 182.066 238.872 181.67C238.109 181.274 237.508 180.739 237.068 180.064C236.628 179.389 236.364 178.619 236.276 177.754H238.168C238.3 178.59 238.674 179.272 239.29 179.8C239.906 180.313 240.683 180.57 241.622 180.57C242.722 180.57 243.587 180.218 244.218 179.514C244.849 178.795 245.164 177.893 245.164 176.808C245.164 175.664 244.841 174.769 244.196 174.124C243.551 173.464 242.715 173.134 241.688 173.134C240.867 173.134 240.163 173.325 239.576 173.706C239.004 174.073 238.542 174.542 238.19 175.114H236.43L237.75 166.6H245.978V168.294H239.202L238.388 172.87H238.498C238.835 172.503 239.29 172.181 239.862 171.902C240.449 171.623 241.123 171.484 241.886 171.484C242.898 171.484 243.778 171.704 244.526 172.144C245.289 172.569 245.883 173.185 246.308 173.992C246.733 174.784 246.946 175.715 246.946 176.786C246.946 177.783 246.733 178.7 246.308 179.536C245.897 180.357 245.289 181.017 244.482 181.516C243.69 182.015 242.729 182.264 241.6 182.264ZM254.791 182.264C253.735 182.264 252.826 182.066 252.063 181.67C251.301 181.274 250.699 180.739 250.259 180.064C249.819 179.389 249.555 178.619 249.467 177.754H251.359C251.491 178.59 251.865 179.272 252.481 179.8C253.097 180.313 253.875 180.57 254.813 180.57C255.913 180.57 256.779 180.218 257.409 179.514C258.04 178.795 258.355 177.893 258.355 176.808C258.355 175.664 258.033 174.769 257.387 174.124C256.742 173.464 255.906 173.134 254.879 173.134C254.058 173.134 253.354 173.325 252.767 173.706C252.195 174.073 251.733 174.542 251.381 175.114H249.621L250.941 166.6H259.169V168.294H252.393L251.579 172.87H251.689C252.027 172.503 252.481 172.181 253.053 171.902C253.64 171.623 254.315 171.484 255.077 171.484C256.089 171.484 256.969 171.704 257.717 172.144C258.48 172.569 259.074 173.185 259.499 173.992C259.925 174.784 260.137 175.715 260.137 176.786C260.137 177.783 259.925 178.7 259.499 179.536C259.089 180.357 258.48 181.017 257.673 181.516C256.881 182.015 255.921 182.264 254.791 182.264Z"></path>
<path fill="black" d="M241.908 231.264C240.559 231.264 239.459 230.941 238.608 230.296C237.772 229.636 237.149 228.756 236.738 227.656C236.342 226.541 236.144 225.287 236.144 223.894C236.144 222.207 236.379 220.726 236.848 219.45C237.317 218.159 237.992 217.155 238.872 216.436C239.767 215.703 240.837 215.336 242.084 215.336C243.067 215.336 243.903 215.527 244.592 215.908C245.296 216.275 245.846 216.781 246.242 217.426C246.653 218.057 246.895 218.768 246.968 219.56H245.23C245.083 218.783 244.731 218.167 244.174 217.712C243.617 217.243 242.92 217.008 242.084 217.008C241.351 217.008 240.676 217.243 240.06 217.712C239.459 218.167 238.96 218.878 238.564 219.846C238.183 220.799 237.963 222.017 237.904 223.498H238.014C238.351 222.867 238.872 222.317 239.576 221.848C240.28 221.379 241.131 221.144 242.128 221.144C243.052 221.144 243.881 221.357 244.614 221.782C245.347 222.207 245.927 222.794 246.352 223.542C246.792 224.29 247.012 225.141 247.012 226.094C247.012 227.033 246.799 227.898 246.374 228.69C245.963 229.467 245.369 230.091 244.592 230.56C243.829 231.029 242.935 231.264 241.908 231.264ZM241.776 229.592C242.788 229.592 243.602 229.269 244.218 228.624C244.834 227.979 245.142 227.172 245.142 226.204C245.142 225.221 244.834 224.415 244.218 223.784C243.602 223.139 242.788 222.816 241.776 222.816C241.101 222.816 240.507 222.963 239.994 223.256C239.495 223.549 239.099 223.953 238.806 224.466C238.527 224.979 238.388 225.559 238.388 226.204C238.388 226.849 238.527 227.429 238.806 227.942C239.099 228.455 239.495 228.859 239.994 229.152C240.507 229.445 241.101 229.592 241.776 229.592ZM254.791 231.264C253.735 231.264 252.826 231.066 252.063 230.67C251.301 230.274 250.699 229.739 250.259 229.064C249.819 228.389 249.555 227.619 249.467 226.754H251.359C251.491 227.59 251.865 228.272 252.481 228.8C253.097 229.313 253.875 229.57 254.813 229.57C255.913 229.57 256.779 229.218 257.409 228.514C258.04 227.795 258.355 226.893 258.355 225.808C258.355 224.664 258.033 223.769 257.387 223.124C256.742 222.464 255.906 222.134 254.879 222.134C254.058 222.134 253.354 222.325 252.767 222.706C252.195 223.073 251.733 223.542 251.381 224.114H249.621L250.941 215.6H259.169V217.294H252.393L251.579 221.87H251.689C252.027 221.503 252.481 221.181 253.053 220.902C253.64 220.623 254.315 220.484 255.077 220.484C256.089 220.484 256.969 220.704 257.717 221.144C258.48 221.569 259.074 222.185 259.499 222.992C259.925 223.784 260.137 224.715 260.137 225.786C260.137 226.783 259.925 227.7 259.499 228.536C259.089 229.357 258.48 230.017 257.673 230.516C256.881 231.015 255.921 231.264 254.791 231.264Z"></path>
<path fill="black" d="M243.492 275V271.436H236.122V270.006L243.14 259.6H245.34V269.764H247.54V271.436H245.34V275H243.492ZM238.19 269.764H243.58V261.756L238.19 269.764ZM254.791 275.264C253.735 275.264 252.826 275.066 252.063 274.67C251.301 274.274 250.699 273.739 250.259 273.064C249.819 272.389 249.555 271.619 249.467 270.754H251.359C251.491 271.59 251.865 272.272 252.481 272.8C253.097 273.313 253.875 273.57 254.813 273.57C255.913 273.57 256.779 273.218 257.409 272.514C258.04 271.795 258.355 270.893 258.355 269.808C258.355 268.664 258.033 267.769 257.387 267.124C256.742 266.464 255.906 266.134 254.879 266.134C254.058 266.134 253.354 266.325 252.767 266.706C252.195 267.073 251.733 267.542 251.381 268.114H249.621L250.941 259.6H259.169V261.294H252.393L251.579 265.87H251.689C252.027 265.503 252.481 265.181 253.053 264.902C253.64 264.623 254.315 264.484 255.077 264.484C256.089 264.484 256.969 264.704 257.717 265.144C258.48 265.569 259.074 266.185 259.499 266.992C259.925 267.784 260.137 268.715 260.137 269.786C260.137 270.783 259.925 271.7 259.499 272.536C259.089 273.357 258.48 274.017 257.673 274.516C256.881 275.015 255.921 275.264 254.791 275.264Z"></path>
</svg>

