<svg xmlns="http://www.w3.org/2000/svg" fill="none" viewBox="0 0 207 53" height="53" width="207">
<g filter="url(#filter0_i)">
<path fill="#F2EE68" d="M18.104 52.864C14.552 52.864 11.456 52.192 8.816 50.848C6.224 49.504 4.208 47.632 2.768 45.232C1.376 42.832 0.656 40.024 0.608 36.808H6.944C6.992 39.688 7.952 42.184 9.824 44.296C11.744 46.36 14.504 47.392 18.104 47.392C21.416 47.392 23.96 46.6 25.736 45.016C27.56 43.384 28.472 41.44 28.472 39.184C28.472 37.312 28.04 35.752 27.176 34.504C26.312 33.208 24.896 32.08 22.928 31.12C21.008 30.112 18.416 29.08 15.152 28.024C10.544 26.632 7.184 24.736 5.072 22.336C2.96 19.936 1.904 16.96 1.904 13.408C1.904 11.008 2.528 8.848 3.776 6.928C5.024 5.008 6.824 3.496 9.176 2.392C11.528 1.288 14.384 0.735999 17.744 0.735999C20.912 0.735999 23.672 1.336 26.024 2.536C28.424 3.688 30.272 5.32 31.568 7.432C32.912 9.544 33.584 11.968 33.584 14.704H27.248C27.248 13.36 26.888 12.04 26.168 10.744C25.448 9.448 24.368 8.368 22.928 7.504C21.488 6.64 19.664 6.208 17.456 6.208C14.816 6.208 12.608 6.856 10.832 8.152C9.056 9.4 8.168 11.128 8.168 13.336C8.168 15.016 8.552 16.432 9.32 17.584C10.136 18.736 11.456 19.792 13.28 20.752C15.104 21.664 17.576 22.648 20.696 23.704C23.624 24.664 26.12 25.792 28.184 27.088C30.296 28.336 31.904 29.896 33.008 31.768C34.16 33.64 34.736 35.968 34.736 38.752C34.736 41.488 34.04 43.912 32.648 46.024C31.256 48.136 29.312 49.816 26.816 51.064C24.32 52.264 21.416 52.864 18.104 52.864ZM42.5559 52V1.6H48.6039V23.344H73.0119V1.6H79.0599V52H73.0119V28.816H48.6039V52H42.5559ZM89.4718 52V46.744H100.92V6.856H89.4718V1.6H118.416V6.856H106.968V46.744H118.416V52H89.4718ZM129.62 52V1.6H135.812L158.708 41.416V1.6H164.684V52H158.42L135.524 12.184V52H129.62ZM174.88 52V1.6H206.344V7.072H180.928V23.848H204.184V29.32H180.928V46.528H206.344V52H174.88Z"></path>
</g>
<defs>
<filter color-interpolation-filters="sRGB" filterUnits="userSpaceOnUse" height="56.128" width="205.736" y="0.736" x="0.608002" id="filter0_i">
<feFlood result="BackgroundImageFix" flood-opacity="0"></feFlood>
<feBlend result="shape" in2="BackgroundImageFix" in="SourceGraphic" mode="normal"></feBlend>
<feColorMatrix result="hardAlpha" values="0 0 0 0 0 0 0 0 0 0 0 0 0 0 0 0 0 0 127 0" type="matrix" in="SourceAlpha"></feColorMatrix>
<feOffset dy="4"></feOffset>
<feGaussianBlur stdDeviation="2"></feGaussianBlur>
<feComposite k3="1" k2="-1" operator="arithmetic" in2="hardAlpha"></feComposite>
<feColorMatrix values="0 0 0 0 0 0 0 0 0 0 0 0 0 0 0 0 0 0 0.25 0" type="matrix"></feColorMatrix>
<feBlend result="effect1_innerShadow" in2="shape" mode="normal"></feBlend>
</filter>
</defs>
</svg>
