<svg xmlns="http://www.w3.org/2000/svg" fill="none" viewBox="0 0 205 78" height="78" width="205">
<g filter="url(#filter0_d)">
<path fill="black" d="M22.66 8.56H16.135V22.15C16.135 23.41 16.48 24.19 17.17 24.49C17.74 24.73 18.475 24.85 19.375 24.85C20.275 24.85 21.265 24.61 22.345 24.13H22.66V27.46C21.4 28.12 20.05 28.45 18.61 28.45C14.23 28.45 12.04 26.47 12.04 22.51V8.56H7.765V8.29L16.135 0.0999998V5.05H22.66V8.56ZM47.9855 16.525V17.965H30.6155C30.8555 20.065 31.6355 21.7 32.9555 22.87C34.2755 24.04 36.2705 24.625 38.9405 24.625C41.6405 24.625 44.1305 23.875 46.4105 22.375H46.6355V26.335C44.1155 27.745 41.1455 28.45 37.7255 28.45C34.3355 28.45 31.6055 27.415 29.5355 25.345C27.4955 23.245 26.4755 20.425 26.4755 16.885C26.4755 13.315 27.3905 10.375 29.2205 8.065C31.0505 5.755 33.7205 4.6 37.2305 4.6C40.7405 4.6 43.4105 5.755 45.2405 8.065C47.0705 10.375 47.9855 13.195 47.9855 16.525ZM30.6155 14.635H43.8905C43.7705 12.475 43.0355 10.84 41.6855 9.73C40.3655 8.62 38.8805 8.065 37.2305 8.065C35.5805 8.065 34.0955 8.62 32.7755 9.73C31.4555 10.84 30.7355 12.475 30.6155 14.635ZM61.8146 8.335C59.8946 8.335 58.4696 8.635 57.5396 9.235C56.6396 9.805 56.1896 10.54 56.1896 11.44C56.1896 12.31 56.6546 12.985 57.5846 13.465C58.5146 13.945 59.6396 14.335 60.9596 14.635C62.3096 14.905 63.6446 15.25 64.9646 15.67C66.2846 16.09 67.4096 16.81 68.3396 17.83C69.2696 18.85 69.7346 20.245 69.7346 22.015C69.7346 23.785 68.9696 25.3 67.4396 26.56C65.9396 27.82 63.6896 28.45 60.6896 28.45C57.7196 28.45 55.0046 27.775 52.5446 26.425V22.51H52.7696C55.1996 23.95 57.8696 24.67 60.7796 24.67C64.1096 24.67 65.7746 23.605 65.7746 21.475C65.7746 20.785 65.3096 20.23 64.3796 19.81C63.4496 19.36 62.3246 18.985 61.0046 18.685C59.6846 18.385 58.3646 18.025 57.0446 17.605C55.7246 17.185 54.5996 16.48 53.6696 15.49C52.7396 14.5 52.2746 13.24 52.2746 11.71C52.2746 9.61 53.0246 7.9 54.5246 6.58C56.0546 5.26 58.1246 4.6 60.7346 4.6C63.3446 4.6 65.7746 5.02 68.0246 5.86V9.595H67.7096C65.6996 8.755 63.7346 8.335 61.8146 8.335ZM83.4357 8.335C81.5157 8.335 80.0907 8.635 79.1607 9.235C78.2607 9.805 77.8107 10.54 77.8107 11.44C77.8107 12.31 78.2757 12.985 79.2057 13.465C80.1357 13.945 81.2607 14.335 82.5807 14.635C83.9307 14.905 85.2657 15.25 86.5857 15.67C87.9057 16.09 89.0307 16.81 89.9607 17.83C90.8907 18.85 91.3557 20.245 91.3557 22.015C91.3557 23.785 90.5907 25.3 89.0607 26.56C87.5607 27.82 85.3107 28.45 82.3107 28.45C79.3407 28.45 76.6257 27.775 74.1657 26.425V22.51H74.3907C76.8207 23.95 79.4907 24.67 82.4007 24.67C85.7307 24.67 87.3957 23.605 87.3957 21.475C87.3957 20.785 86.9307 20.23 86.0007 19.81C85.0707 19.36 83.9457 18.985 82.6257 18.685C81.3057 18.385 79.9857 18.025 78.6657 17.605C77.3457 17.185 76.2207 16.48 75.2907 15.49C74.3607 14.5 73.8957 13.24 73.8957 11.71C73.8957 9.61 74.6457 7.9 76.1457 6.58C77.6757 5.26 79.7457 4.6 82.3557 4.6C84.9657 4.6 87.3957 5.02 89.6457 5.86V9.595H89.3307C87.3207 8.755 85.3557 8.335 83.4357 8.335ZM28.24 33.05H31.84V55.01C31.84 58.79 30.925 61.7 29.095 63.74C27.265 65.78 24.61 66.8 21.13 66.8C17.68 66.8 14.53 66.035 11.68 64.505V60.455H11.905C14.455 62.105 17.44 62.93 20.86 62.93C25.45 62.93 27.745 60.485 27.745 55.595V52.67H27.61C25.54 54.89 23.065 56 20.185 56C17.305 56 14.74 54.98 12.49 52.94C10.27 50.87 9.16 47.99 9.16 44.3C9.16 40.61 10.27 37.745 12.49 35.705C14.74 33.635 17.305 32.6 20.185 32.6C23.065 32.6 25.54 33.71 27.61 35.93H27.745L28.24 33.05ZM27.745 48.935V39.665C25.585 37.445 23.335 36.335 20.995 36.335C18.685 36.335 16.81 37.025 15.37 38.405C13.96 39.755 13.255 41.72 13.255 44.3C13.255 46.88 13.96 48.86 15.37 50.24C16.81 51.59 18.685 52.265 20.995 52.265C23.335 52.265 25.585 51.155 27.745 48.935ZM37.5487 44.525C37.5487 40.955 38.5987 38.075 40.6987 35.885C42.7987 33.695 45.5737 32.6 49.0237 32.6C52.5037 32.6 55.2937 33.695 57.3937 35.885C59.5237 38.075 60.5887 40.955 60.5887 44.525C60.5887 48.095 59.5237 50.975 57.3937 53.165C55.2937 55.355 52.5037 56.45 49.0237 56.45C45.5737 56.45 42.7987 55.355 40.6987 53.165C38.5987 50.975 37.5487 48.095 37.5487 44.525ZM43.8487 50.69C45.3487 52.04 47.0887 52.715 49.0687 52.715C51.0487 52.715 52.7737 52.04 54.2437 50.69C55.7437 49.31 56.4937 47.255 56.4937 44.525C56.4937 41.765 55.7437 39.71 54.2437 38.36C52.7737 37.01 51.0487 36.335 49.0687 36.335C47.0887 36.335 45.3487 37.01 43.8487 38.36C42.3787 39.71 41.6437 41.765 41.6437 44.525C41.6437 47.255 42.3787 49.31 43.8487 50.69ZM93.2316 32.6C95.6916 32.6 97.5516 33.47 98.8116 35.21C100.102 36.95 100.747 38.96 100.747 41.24V56H96.6516V42.05C96.6516 40.1 96.2916 38.675 95.5716 37.775C94.8816 36.845 93.7116 36.38 92.0616 36.38C89.4816 36.38 87.3216 37.82 85.5816 40.7V56H81.4866V42.05C81.4866 40.1 81.1416 38.675 80.4516 37.775C79.7616 36.845 78.5766 36.38 76.8966 36.38C74.3166 36.38 72.1566 37.82 70.4166 40.7V56H66.3216V33.05H69.9216L70.4166 35.93V36.605H70.5066C72.4266 33.935 74.9466 32.6 78.0666 32.6C79.7466 32.6 81.1716 33.035 82.3416 33.905C83.5416 34.775 84.3966 35.855 84.9066 37.145H85.0416C86.8716 34.115 89.6016 32.6 93.2316 32.6ZM127.069 53.21C124.909 55.37 122.374 56.45 119.464 56.45C116.554 56.45 114.034 55.34 111.904 53.12H111.769V66.35H107.674V33.05H111.274L111.769 35.93H111.904C114.034 33.71 116.554 32.6 119.464 32.6C122.374 32.6 124.909 33.68 127.069 35.84C129.259 38 130.354 40.895 130.354 44.525C130.354 48.155 129.259 51.05 127.069 53.21ZM118.879 36.425C116.179 36.425 113.809 37.55 111.769 39.8V49.25C113.809 51.5 116.179 52.625 118.879 52.625C121.099 52.625 122.884 51.92 124.234 50.51C125.584 49.1 126.259 47.105 126.259 44.525C126.259 41.945 125.584 39.95 124.234 38.54C122.884 37.13 121.099 36.425 118.879 36.425ZM155.458 53.21C153.298 55.37 150.763 56.45 147.853 56.45C144.943 56.45 142.423 55.34 140.293 53.12H140.158V66.35H136.063V33.05H139.663L140.158 35.93H140.293C142.423 33.71 144.943 32.6 147.853 32.6C150.763 32.6 153.298 33.68 155.458 35.84C157.648 38 158.743 40.895 158.743 44.525C158.743 48.155 157.648 51.05 155.458 53.21ZM147.268 36.425C144.568 36.425 142.198 37.55 140.158 39.8V49.25C142.198 51.5 144.568 52.625 147.268 52.625C149.488 52.625 151.273 51.92 152.623 50.51C153.973 49.1 154.648 47.105 154.648 44.525C154.648 41.945 153.973 39.95 152.623 38.54C151.273 37.13 149.488 36.425 147.268 36.425ZM184.611 44.525V45.965H167.241C167.481 48.065 168.261 49.7 169.581 50.87C170.901 52.04 172.896 52.625 175.566 52.625C178.266 52.625 180.756 51.875 183.036 50.375H183.261V54.335C180.741 55.745 177.771 56.45 174.351 56.45C170.961 56.45 168.231 55.415 166.161 53.345C164.121 51.245 163.101 48.425 163.101 44.885C163.101 41.315 164.016 38.375 165.846 36.065C167.676 33.755 170.346 32.6 173.856 32.6C177.366 32.6 180.036 33.755 181.866 36.065C183.696 38.375 184.611 41.195 184.611 44.525ZM167.241 42.635H180.516C180.396 40.475 179.661 38.84 178.311 37.73C176.991 36.62 175.506 36.065 173.856 36.065C172.206 36.065 170.721 36.62 169.401 37.73C168.081 38.84 167.361 40.475 167.241 42.635ZM202.761 32.6H203.121V36.515H202.761C200.991 36.515 199.341 36.86 197.811 37.55C196.281 38.24 195.081 39.2 194.211 40.43V56H190.116V33.05H193.716L194.211 35.93V36.605H194.301C196.461 33.935 199.281 32.6 202.761 32.6Z"></path>
</g>
<defs>
<filter color-interpolation-filters="sRGB" filterUnits="userSpaceOnUse" height="77.7" width="203.356" y="0.100006" x="0.765015" id="filter0_d">
<feFlood result="BackgroundImageFix" flood-opacity="0"></feFlood>
<feColorMatrix result="hardAlpha" values="0 0 0 0 0 0 0 0 0 0 0 0 0 0 0 0 0 0 127 0" type="matrix" in="SourceAlpha"></feColorMatrix>
<feOffset dy="7" dx="-3"></feOffset>
<feGaussianBlur stdDeviation="2"></feGaussianBlur>
<feColorMatrix values="0 0 0 0 0 0 0 0 0 0 0 0 0 0 0 0 0 0 0.4 0" type="matrix"></feColorMatrix>
<feBlend result="effect1_dropShadow" in2="BackgroundImageFix" mode="normal"></feBlend>
<feBlend result="shape" in2="effect1_dropShadow" in="SourceGraphic" mode="normal"></feBlend>
</filter>
</defs>
</svg>
